<svg width="16" height="16" viewBox="0 0 16 16" fill="none" xmlns="http://www.w3.org/2000/svg">
<g clip-path="url(#clip0_1_2)">
<path d="M4 0V12H16V0H4ZM5.71429 1.71429H14.2857V10.2857H5.71429V1.71429ZM10.8571 4.28571V5.14286H10V6H8.28571V6.85714H7.42857V7.71429H6.57143V8.57143H8.28571H10H11.7143H13.4286V6.85714H12.5714V5.14286H11.7143V4.28571H10.8571Z" fill="#86AF8A"/>
<path d="M2 2V14H14V2H2ZM3.71429 3.71429H12.2857V12.2857H3.71429V3.71429ZM8.85714 6.28571V7.14286H8V8H6.28571V8.85714H5.42857V9.71429H4.57143V10.5714H6.28571H8H9.71429H11.4286V8.85714H10.5714V7.14286H9.71429V6.28571H8.85714Z" fill="#8AD291"/>
<path d="M0 4V16H12V4H0ZM1.71429 5.71429H10.2857V14.2857H1.71429V5.71429ZM6.85714 8.28571V9.14286H6V10H4.28571V10.8571H3.42857V11.7143H2.57143V12.5714H4.28571H6H7.71429H9.42857V10.8571H8.57143V9.14286H7.71429V8.28571H6.85714Z" fill="#8EEF97"/>
</g>
<defs>
<clipPath id="clip0_1_2">
<rect width="16" height="16" fill="white"/>
</clipPath>
</defs>
</svg>
